<svg xmlns="http://www.w3.org/2000/svg" viewBox="0 0 256 256">
  <rect width="256" height="256" fill="#0a0a1a" rx="30"/>
  <g transform="translate(38,32)">
    <path d="M90 0C40 0 0 38 0 85c0 28 14 53 36 68l-10 27h22c18 0 34-8 46-20 0 0 0 0 1 0 49 0 89-34 89-75S139 0 90 0z" fill="#4D6BFE"/>
    <path d="M68 55c-3 0-6 3-6 6v22c0 3 3 6 6 6h44c3 0 6-3 6-6V61c0-3-3-6-6-6H68z" fill="#fff"/>
    <circle cx="78" cy="72" r="6" fill="#4D6BFE"/>
    <circle cx="102" cy="72" r="6" fill="#4D6BFE"/>
  </g>
  <text x="128" y="220" font-size="26" font-weight="700" text-anchor="middle" fill="#4D6BFE" font-family="system-ui, sans-serif">DeepSeek V4</text>
</svg>
